# This file uses centimeters as units for non-parametric coordinates.

g default
v -4.850181 0.000000 4.147574
v -2.941168 0.000000 4.147574
v -1.032155 0.000000 4.147574
v 0.876858 0.000000 4.147574
v 2.785871 0.000000 4.147574
v 4.694884 0.000000 4.147574
v 6.603897 0.000000 4.147574
v -4.850181 0.407729 4.147574
v -2.941168 0.407729 4.147574
v -1.032155 0.407729 4.147574
v 0.876858 0.407729 4.147574
v 2.785871 0.407729 4.147574
v 4.694884 0.407729 4.147574
v 6.603897 0.407729 4.147574
v -4.850181 0.407729 2.520854
v -2.941168 0.407729 2.520854
v -1.032155 0.407729 2.520854
v 0.876858 0.407729 2.520854
v 2.785871 0.407729 2.520854
v 4.694884 0.407729 2.520854
v 6.603897 0.407729 2.520854
v -4.850181 0.407729 0.894134
v -2.941168 0.407729 0.894134
v -1.032155 0.407729 0.894134
v 0.876858 0.407729 0.894134
v 2.785871 0.407729 0.894134
v 4.694884 0.407729 0.894134
v 6.603897 0.407729 0.894134
v -4.850181 0.407729 -0.732586
v -2.941168 0.407729 -0.732586
v -1.032155 0.407729 -0.732586
v 0.876858 0.407729 -0.732586
v 2.785871 0.407729 -0.732586
v 4.694884 0.407729 -0.732586
v 6.603897 0.407729 -0.732586
v -4.850181 0.407729 -2.359306
v -2.941168 0.407729 -2.359306
v -1.032155 0.407729 -2.359306
v 0.876858 0.407729 -2.359306
v 2.785871 0.407729 -2.359306
v 4.694884 0.407729 -2.359306
v 6.603897 0.407729 -2.359306
v -4.850181 0.407729 -3.986026
v -2.941168 0.407729 -3.986026
v -1.032155 0.407729 -3.986026
v 0.876858 0.407729 -3.986026
v 2.785871 0.407729 -3.986026
v 4.694884 0.407729 -3.986026
v 6.603897 0.407729 -3.986026
v -4.850181 0.407729 -5.612746
v -2.941168 0.407729 -5.612746
v -1.032155 0.407729 -5.612746
v 0.876858 0.407729 -5.612746
v 2.785871 0.407729 -5.612746
v 4.694884 0.407729 -5.612746
v 6.603897 0.407729 -5.612746
v -4.850181 0.000000 -5.612746
v -2.941168 0.000000 -5.612746
v -1.032155 0.000000 -5.612746
v 0.876858 0.000000 -5.612746
v 2.785871 0.000000 -5.612746
v 4.694884 0.000000 -5.612746
v 6.603897 0.000000 -5.612746
v -4.850181 0.000000 -3.986026
v -2.941168 0.000000 -3.986026
v -1.032155 0.000000 -3.986026
v 0.876858 0.000000 -3.986026
v 2.785871 0.000000 -3.986026
v 4.694884 0.000000 -3.986026
v 6.603897 0.000000 -3.986026
v -4.850181 0.000000 -2.359306
v -2.941168 0.000000 -2.359306
v -1.032155 0.000000 -2.359306
v 0.876858 0.000000 -2.359306
v 2.785871 0.000000 -2.359306
v 4.694884 0.000000 -2.359306
v 6.603897 0.000000 -2.359306
v -4.850181 0.000000 -0.732586
v -2.941168 0.000000 -0.732586
v -1.032155 0.000000 -0.732586
v 0.876858 0.000000 -0.732586
v 2.785871 0.000000 -0.732586
v 4.694884 0.000000 -0.732586
v 6.603897 0.000000 -0.732586
v -4.850181 0.000000 0.894134
v -2.941168 0.000000 0.894134
v -1.032155 0.000000 0.894134
v 0.876858 0.000000 0.894134
v 2.785871 0.000000 0.894134
v 4.694884 0.000000 0.894134
v 6.603897 0.000000 0.894134
v -4.850181 0.000000 2.520854
v -2.941168 0.000000 2.520854
v -1.032155 0.000000 2.520854
v 0.876858 0.000000 2.520854
v 2.785871 0.000000 2.520854
v 4.694884 0.000000 2.520854
v 6.603897 0.000000 2.520854
vt 0.375000 0.000000
vt 0.416667 0.000000
vt 0.416667 0.250000
vt 0.375000 0.250000
vt 0.458333 0.000000
vt 0.458333 0.250000
vt 0.500000 0.000000
vt 0.500000 0.250000
vt 0.541667 0.000000
vt 0.541667 0.250000
vt 0.583333 0.000000
vt 0.583333 0.250000
vt 0.625000 0.000000
vt 0.625000 0.250000
vt 0.416667 0.291667
vt 0.375000 0.291667
vt 0.458333 0.291667
vt 0.500000 0.291667
vt 0.541667 0.291667
vt 0.583333 0.291667
vt 0.625000 0.291667
vt 0.416667 0.333333
vt 0.375000 0.333333
vt 0.458333 0.333333
vt 0.500000 0.333333
vt 0.541667 0.333333
vt 0.583333 0.333333
vt 0.625000 0.333333
vt 0.416667 0.375000
vt 0.375000 0.375000
vt 0.458333 0.375000
vt 0.500000 0.375000
vt 0.541667 0.375000
vt 0.583333 0.375000
vt 0.625000 0.375000
vt 0.416667 0.416667
vt 0.375000 0.416667
vt 0.458333 0.416667
vt 0.500000 0.416667
vt 0.541667 0.416667
vt 0.583333 0.416667
vt 0.625000 0.416667
vt 0.416667 0.458333
vt 0.375000 0.458333
vt 0.458333 0.458333
vt 0.500000 0.458333
vt 0.541667 0.458333
vt 0.583333 0.458333
vt 0.625000 0.458333
vt 0.416667 0.500000
vt 0.375000 0.500000
vt 0.458333 0.500000
vt 0.500000 0.500000
vt 0.541667 0.500000
vt 0.583333 0.500000
vt 0.625000 0.500000
vt 0.416667 0.750000
vt 0.375000 0.750000
vt 0.458333 0.750000
vt 0.500000 0.750000
vt 0.541667 0.750000
vt 0.583333 0.750000
vt 0.625000 0.750000
vt 0.416667 0.791667
vt 0.375000 0.791667
vt 0.458333 0.791667
vt 0.500000 0.791667
vt 0.541667 0.791667
vt 0.583333 0.791667
vt 0.625000 0.791667
vt 0.416667 0.833333
vt 0.375000 0.833333
vt 0.458333 0.833333
vt 0.500000 0.833333
vt 0.541667 0.833333
vt 0.583333 0.833333
vt 0.625000 0.833333
vt 0.416667 0.875000
vt 0.375000 0.875000
vt 0.458333 0.875000
vt 0.500000 0.875000
vt 0.541667 0.875000
vt 0.583333 0.875000
vt 0.625000 0.875000
vt 0.416667 0.916667
vt 0.375000 0.916667
vt 0.458333 0.916667
vt 0.500000 0.916667
vt 0.541667 0.916667
vt 0.583333 0.916667
vt 0.625000 0.916667
vt 0.416667 0.958333
vt 0.375000 0.958333
vt 0.458333 0.958333
vt 0.500000 0.958333
vt 0.541667 0.958333
vt 0.583333 0.958333
vt 0.625000 0.958333
vt 0.416667 1.000000
vt 0.375000 1.000000
vt 0.458333 1.000000
vt 0.500000 1.000000
vt 0.541667 1.000000
vt 0.583333 1.000000
vt 0.625000 1.000000
vt 0.833333 0.000000
vt 0.875000 0.000000
vt 0.875000 0.250000
vt 0.833333 0.250000
vt 0.791667 0.000000
vt 0.791667 0.250000
vt 0.750000 0.000000
vt 0.750000 0.250000
vt 0.708333 0.000000
vt 0.708333 0.250000
vt 0.666667 0.000000
vt 0.666667 0.250000
vt 0.125000 0.000000
vt 0.166667 0.000000
vt 0.166667 0.250000
vt 0.125000 0.250000
vt 0.208333 0.000000
vt 0.208333 0.250000
vt 0.250000 0.000000
vt 0.250000 0.250000
vt 0.291667 0.000000
vt 0.291667 0.250000
vt 0.333333 0.000000
vt 0.333333 0.250000
vn 0.000000 0.000000 1.000000
vn 0.000000 0.000000 1.000000
vn 0.000000 0.000000 1.000000
vn 0.000000 0.000000 1.000000
vn 0.000000 0.000000 1.000000
vn 0.000000 0.000000 1.000000
vn 0.000000 0.000000 1.000000
vn 0.000000 0.000000 1.000000
vn 0.000000 0.000000 1.000000
vn 0.000000 0.000000 1.000000
vn 0.000000 0.000000 1.000000
vn 0.000000 0.000000 1.000000
vn 0.000000 0.000000 1.000000
vn 0.000000 0.000000 1.000000
vn 0.000000 0.000000 1.000000
vn 0.000000 0.000000 1.000000
vn 0.000000 0.000000 1.000000
vn 0.000000 0.000000 1.000000
vn 0.000000 0.000000 1.000000
vn 0.000000 0.000000 1.000000
vn 0.000000 0.000000 1.000000
vn 0.000000 0.000000 1.000000
vn 0.000000 0.000000 1.000000
vn 0.000000 0.000000 1.000000
vn 0.000000 1.000000 0.000000
vn 0.000000 1.000000 0.000000
vn 0.000000 1.000000 0.000000
vn 0.000000 1.000000 0.000000
vn 0.000000 1.000000 0.000000
vn 0.000000 1.000000 0.000000
vn 0.000000 1.000000 0.000000
vn 0.000000 1.000000 0.000000
vn 0.000000 1.000000 0.000000
vn 0.000000 1.000000 0.000000
vn 0.000000 1.000000 0.000000
vn 0.000000 1.000000 0.000000
vn 0.000000 1.000000 0.000000
vn 0.000000 1.000000 0.000000
vn 0.000000 1.000000 0.000000
vn 0.000000 1.000000 0.000000
vn 0.000000 1.000000 0.000000
vn 0.000000 1.000000 0.000000
vn 0.000000 1.000000 0.000000
vn 0.000000 1.000000 0.000000
vn 0.000000 1.000000 0.000000
vn 0.000000 1.000000 0.000000
vn 0.000000 1.000000 0.000000
vn 0.000000 1.000000 0.000000
vn 0.000000 1.000000 0.000000
vn 0.000000 1.000000 0.000000
vn 0.000000 1.000000 0.000000
vn 0.000000 1.000000 0.000000
vn 0.000000 1.000000 0.000000
vn 0.000000 1.000000 0.000000
vn 0.000000 1.000000 0.000000
vn 0.000000 1.000000 0.000000
vn 0.000000 1.000000 0.000000
vn 0.000000 1.000000 0.000000
vn 0.000000 1.000000 0.000000
vn 0.000000 1.000000 0.000000
vn 0.000000 1.000000 0.000000
vn 0.000000 1.000000 0.000000
vn 0.000000 1.000000 0.000000
vn 0.000000 1.000000 0.000000
vn 0.000000 1.000000 0.000000
vn 0.000000 1.000000 0.000000
vn 0.000000 1.000000 0.000000
vn 0.000000 1.000000 0.000000
vn 0.000000 1.000000 0.000000
vn 0.000000 1.000000 0.000000
vn 0.000000 1.000000 0.000000
vn 0.000000 1.000000 0.000000
vn 0.000000 1.000000 0.000000
vn 0.000000 1.000000 0.000000
vn 0.000000 1.000000 0.000000
vn 0.000000 1.000000 0.000000
vn 0.000000 1.000000 0.000000
vn 0.000000 1.000000 0.000000
vn 0.000000 1.000000 0.000000
vn 0.000000 1.000000 0.000000
vn 0.000000 1.000000 0.000000
vn 0.000000 1.000000 0.000000
vn 0.000000 1.000000 0.000000
vn 0.000000 1.000000 0.000000
vn 0.000000 1.000000 0.000000
vn 0.000000 1.000000 0.000000
vn 0.000000 1.000000 0.000000
vn 0.000000 1.000000 0.000000
vn 0.000000 1.000000 0.000000
vn 0.000000 1.000000 0.000000
vn 0.000000 1.000000 0.000000
vn 0.000000 1.000000 0.000000
vn 0.000000 1.000000 0.000000
vn 0.000000 1.000000 0.000000
vn 0.000000 1.000000 0.000000
vn 0.000000 1.000000 0.000000
vn 0.000000 1.000000 0.000000
vn 0.000000 1.000000 0.000000
vn 0.000000 1.000000 0.000000
vn 0.000000 1.000000 0.000000
vn 0.000000 1.000000 0.000000
vn 0.000000 1.000000 0.000000
vn 0.000000 1.000000 0.000000
vn 0.000000 1.000000 0.000000
vn 0.000000 1.000000 0.000000
vn 0.000000 1.000000 0.000000
vn 0.000000 1.000000 0.000000
vn 0.000000 1.000000 0.000000
vn 0.000000 1.000000 0.000000
vn 0.000000 1.000000 0.000000
vn 0.000000 1.000000 0.000000
vn 0.000000 1.000000 0.000000
vn 0.000000 1.000000 0.000000
vn 0.000000 1.000000 0.000000
vn 0.000000 1.000000 0.000000
vn 0.000000 1.000000 0.000000
vn 0.000000 1.000000 0.000000
vn 0.000000 1.000000 0.000000
vn 0.000000 1.000000 0.000000
vn 0.000000 1.000000 0.000000
vn 0.000000 1.000000 0.000000
vn 0.000000 1.000000 0.000000
vn 0.000000 1.000000 0.000000
vn 0.000000 1.000000 0.000000
vn 0.000000 1.000000 0.000000
vn 0.000000 1.000000 0.000000
vn 0.000000 1.000000 0.000000
vn 0.000000 1.000000 0.000000
vn 0.000000 1.000000 0.000000
vn 0.000000 1.000000 0.000000
vn 0.000000 1.000000 0.000000
vn 0.000000 1.000000 0.000000
vn 0.000000 1.000000 0.000000
vn 0.000000 1.000000 0.000000
vn 0.000000 1.000000 0.000000
vn 0.000000 1.000000 0.000000
vn 0.000000 1.000000 0.000000
vn 0.000000 1.000000 0.000000
vn 0.000000 1.000000 0.000000
vn 0.000000 1.000000 0.000000
vn 0.000000 1.000000 0.000000
vn 0.000000 1.000000 0.000000
vn 0.000000 1.000000 0.000000
vn 0.000000 1.000000 0.000000
vn 0.000000 1.000000 0.000000
vn 0.000000 1.000000 0.000000
vn 0.000000 1.000000 0.000000
vn 0.000000 1.000000 0.000000
vn 0.000000 1.000000 0.000000
vn 0.000000 1.000000 0.000000
vn 0.000000 1.000000 0.000000
vn 0.000000 1.000000 0.000000
vn 0.000000 1.000000 0.000000
vn 0.000000 1.000000 0.000000
vn 0.000000 1.000000 0.000000
vn 0.000000 1.000000 0.000000
vn 0.000000 1.000000 0.000000
vn 0.000000 1.000000 0.000000
vn 0.000000 1.000000 0.000000
vn 0.000000 1.000000 0.000000
vn 0.000000 1.000000 0.000000
vn 0.000000 1.000000 0.000000
vn 0.000000 1.000000 0.000000
vn 0.000000 1.000000 0.000000
vn 0.000000 1.000000 0.000000
vn 0.000000 1.000000 0.000000
vn 0.000000 1.000000 0.000000
vn 0.000000 1.000000 0.000000
vn 0.000000 0.000000 -1.000000
vn 0.000000 0.000000 -1.000000
vn 0.000000 0.000000 -1.000000
vn 0.000000 0.000000 -1.000000
vn 0.000000 0.000000 -1.000000
vn 0.000000 0.000000 -1.000000
vn 0.000000 0.000000 -1.000000
vn 0.000000 0.000000 -1.000000
vn 0.000000 0.000000 -1.000000
vn 0.000000 0.000000 -1.000000
vn 0.000000 0.000000 -1.000000
vn 0.000000 0.000000 -1.000000
vn 0.000000 0.000000 -1.000000
vn 0.000000 0.000000 -1.000000
vn 0.000000 0.000000 -1.000000
vn 0.000000 0.000000 -1.000000
vn 0.000000 0.000000 -1.000000
vn 0.000000 0.000000 -1.000000
vn 0.000000 0.000000 -1.000000
vn 0.000000 0.000000 -1.000000
vn 0.000000 0.000000 -1.000000
vn 0.000000 0.000000 -1.000000
vn 0.000000 0.000000 -1.000000
vn 0.000000 0.000000 -1.000000
vn 0.000000 -1.000000 0.000000
vn 0.000000 -1.000000 0.000000
vn 0.000000 -1.000000 0.000000
vn 0.000000 -1.000000 0.000000
vn 0.000000 -1.000000 0.000000
vn 0.000000 -1.000000 0.000000
vn 0.000000 -1.000000 0.000000
vn 0.000000 -1.000000 0.000000
vn 0.000000 -1.000000 0.000000
vn 0.000000 -1.000000 0.000000
vn 0.000000 -1.000000 0.000000
vn 0.000000 -1.000000 0.000000
vn 0.000000 -1.000000 0.000000
vn 0.000000 -1.000000 0.000000
vn 0.000000 -1.000000 0.000000
vn 0.000000 -1.000000 0.000000
vn 0.000000 -1.000000 0.000000
vn 0.000000 -1.000000 0.000000
vn 0.000000 -1.000000 0.000000
vn 0.000000 -1.000000 0.000000
vn 0.000000 -1.000000 0.000000
vn 0.000000 -1.000000 0.000000
vn 0.000000 -1.000000 0.000000
vn 0.000000 -1.000000 0.000000
vn 0.000000 -1.000000 0.000000
vn 0.000000 -1.000000 0.000000
vn 0.000000 -1.000000 0.000000
vn 0.000000 -1.000000 0.000000
vn 0.000000 -1.000000 0.000000
vn 0.000000 -1.000000 0.000000
vn 0.000000 -1.000000 0.000000
vn 0.000000 -1.000000 0.000000
vn 0.000000 -1.000000 0.000000
vn 0.000000 -1.000000 0.000000
vn 0.000000 -1.000000 0.000000
vn 0.000000 -1.000000 0.000000
vn 0.000000 -1.000000 0.000000
vn 0.000000 -1.000000 0.000000
vn 0.000000 -1.000000 0.000000
vn 0.000000 -1.000000 0.000000
vn 0.000000 -1.000000 0.000000
vn 0.000000 -1.000000 0.000000
vn 0.000000 -1.000000 0.000000
vn 0.000000 -1.000000 0.000000
vn 0.000000 -1.000000 0.000000
vn 0.000000 -1.000000 0.000000
vn 0.000000 -1.000000 0.000000
vn 0.000000 -1.000000 0.000000
vn 0.000000 -1.000000 0.000000
vn 0.000000 -1.000000 0.000000
vn 0.000000 -1.000000 0.000000
vn 0.000000 -1.000000 0.000000
vn 0.000000 -1.000000 0.000000
vn 0.000000 -1.000000 0.000000
vn 0.000000 -1.000000 0.000000
vn 0.000000 -1.000000 0.000000
vn 0.000000 -1.000000 0.000000
vn 0.000000 -1.000000 0.000000
vn 0.000000 -1.000000 0.000000
vn 0.000000 -1.000000 0.000000
vn 0.000000 -1.000000 0.000000
vn 0.000000 -1.000000 0.000000
vn 0.000000 -1.000000 0.000000
vn 0.000000 -1.000000 0.000000
vn 0.000000 -1.000000 0.000000
vn 0.000000 -1.000000 0.000000
vn 0.000000 -1.000000 0.000000
vn 0.000000 -1.000000 0.000000
vn 0.000000 -1.000000 0.000000
vn 0.000000 -1.000000 0.000000
vn 0.000000 -1.000000 0.000000
vn 0.000000 -1.000000 0.000000
vn 0.000000 -1.000000 0.000000
vn 0.000000 -1.000000 0.000000
vn 0.000000 -1.000000 0.000000
vn 0.000000 -1.000000 0.000000
vn 0.000000 -1.000000 0.000000
vn 0.000000 -1.000000 0.000000
vn 0.000000 -1.000000 0.000000
vn 0.000000 -1.000000 0.000000
vn 0.000000 -1.000000 0.000000
vn 0.000000 -1.000000 0.000000
vn 0.000000 -1.000000 0.000000
vn 0.000000 -1.000000 0.000000
vn 0.000000 -1.000000 0.000000
vn 0.000000 -1.000000 0.000000
vn 0.000000 -1.000000 0.000000
vn 0.000000 -1.000000 0.000000
vn 0.000000 -1.000000 0.000000
vn 0.000000 -1.000000 0.000000
vn 0.000000 -1.000000 0.000000
vn 0.000000 -1.000000 0.000000
vn 0.000000 -1.000000 0.000000
vn 0.000000 -1.000000 0.000000
vn 0.000000 -1.000000 0.000000
vn 0.000000 -1.000000 0.000000
vn 0.000000 -1.000000 0.000000
vn 0.000000 -1.000000 0.000000
vn 0.000000 -1.000000 0.000000
vn 0.000000 -1.000000 0.000000
vn 0.000000 -1.000000 0.000000
vn 0.000000 -1.000000 0.000000
vn 0.000000 -1.000000 0.000000
vn 0.000000 -1.000000 0.000000
vn 0.000000 -1.000000 0.000000
vn 0.000000 -1.000000 0.000000
vn 0.000000 -1.000000 0.000000
vn 0.000000 -1.000000 0.000000
vn 0.000000 -1.000000 0.000000
vn 0.000000 -1.000000 0.000000
vn 0.000000 -1.000000 0.000000
vn 0.000000 -1.000000 0.000000
vn 0.000000 -1.000000 0.000000
vn 0.000000 -1.000000 0.000000
vn 0.000000 -1.000000 0.000000
vn 0.000000 -1.000000 0.000000
vn 0.000000 -1.000000 0.000000
vn 0.000000 -1.000000 0.000000
vn 0.000000 -1.000000 0.000000
vn 0.000000 -1.000000 0.000000
vn 0.000000 -1.000000 0.000000
vn 0.000000 -1.000000 0.000000
vn 0.000000 -1.000000 0.000000
vn 0.000000 -1.000000 0.000000
vn 0.000000 -1.000000 0.000000
vn 0.000000 -1.000000 0.000000
vn 0.000000 -1.000000 0.000000
vn 0.000000 -1.000000 0.000000
vn 0.000000 -1.000000 0.000000
vn 0.000000 -1.000000 0.000000
vn 0.000000 -1.000000 0.000000
vn 0.000000 -1.000000 0.000000
vn 0.000000 -1.000000 0.000000
vn 0.000000 -1.000000 0.000000
vn 0.000000 -1.000000 0.000000
vn 0.000000 -1.000000 0.000000
vn 0.000000 -1.000000 0.000000
vn 0.000000 -1.000000 0.000000
vn 0.000000 -1.000000 0.000000
vn 0.000000 -1.000000 0.000000
vn 0.000000 -1.000000 0.000000
vn 0.000000 -1.000000 0.000000
vn 0.000000 -1.000000 0.000000
vn 0.000000 -1.000000 0.000000
vn 1.000000 0.000000 0.000000
vn 1.000000 0.000000 0.000000
vn 1.000000 0.000000 0.000000
vn 1.000000 0.000000 0.000000
vn 1.000000 0.000000 0.000000
vn 1.000000 0.000000 0.000000
vn 1.000000 0.000000 0.000000
vn 1.000000 0.000000 0.000000
vn 1.000000 0.000000 0.000000
vn 1.000000 0.000000 0.000000
vn 1.000000 0.000000 0.000000
vn 1.000000 0.000000 0.000000
vn 1.000000 0.000000 0.000000
vn 1.000000 0.000000 0.000000
vn 1.000000 0.000000 0.000000
vn 1.000000 0.000000 0.000000
vn 1.000000 0.000000 0.000000
vn 1.000000 0.000000 0.000000
vn 1.000000 0.000000 0.000000
vn 1.000000 0.000000 0.000000
vn 1.000000 0.000000 0.000000
vn 1.000000 0.000000 0.000000
vn 1.000000 0.000000 0.000000
vn 1.000000 0.000000 0.000000
vn -1.000000 0.000000 0.000000
vn -1.000000 0.000000 0.000000
vn -1.000000 0.000000 0.000000
vn -1.000000 0.000000 0.000000
vn -1.000000 0.000000 0.000000
vn -1.000000 0.000000 0.000000
vn -1.000000 0.000000 0.000000
vn -1.000000 0.000000 0.000000
vn -1.000000 0.000000 0.000000
vn -1.000000 0.000000 0.000000
vn -1.000000 0.000000 0.000000
vn -1.000000 0.000000 0.000000
vn -1.000000 0.000000 0.000000
vn -1.000000 0.000000 0.000000
vn -1.000000 0.000000 0.000000
vn -1.000000 0.000000 0.000000
vn -1.000000 0.000000 0.000000
vn -1.000000 0.000000 0.000000
vn -1.000000 0.000000 0.000000
vn -1.000000 0.000000 0.000000
vn -1.000000 0.000000 0.000000
vn -1.000000 0.000000 0.000000
vn -1.000000 0.000000 0.000000
vn -1.000000 0.000000 0.000000
s off
g model:pCube2
f 1/1/1 2/2/2 9/3/3 8/4/4
f 2/2/5 3/5/6 10/6/7 9/3/8
f 3/5/9 4/7/10 11/8/11 10/6/12
f 4/7/13 5/9/14 12/10/15 11/8/16
f 5/9/17 6/11/18 13/12/19 12/10/20
f 6/11/21 7/13/22 14/14/23 13/12/24
f 8/4/25 9/3/26 16/15/27 15/16/28
f 9/3/29 10/6/30 17/17/31 16/15/32
f 10/6/33 11/8/34 18/18/35 17/17/36
f 11/8/37 12/10/38 19/19/39 18/18/40
f 12/10/41 13/12/42 20/20/43 19/19/44
f 13/12/45 14/14/46 21/21/47 20/20/48
f 15/16/49 16/15/50 23/22/51 22/23/52
f 16/15/53 17/17/54 24/24/55 23/22/56
f 17/17/57 18/18/58 25/25/59 24/24/60
f 18/18/61 19/19/62 26/26/63 25/25/64
f 19/19/65 20/20/66 27/27/67 26/26/68
f 20/20/69 21/21/70 28/28/71 27/27/72
f 22/23/73 23/22/74 30/29/75 29/30/76
f 23/22/77 24/24/78 31/31/79 30/29/80
f 24/24/81 25/25/82 32/32/83 31/31/84
f 25/25/85 26/26/86 33/33/87 32/32/88
f 26/26/89 27/27/90 34/34/91 33/33/92
f 27/27/93 28/28/94 35/35/95 34/34/96
f 29/30/97 30/29/98 37/36/99 36/37/100
f 30/29/101 31/31/102 38/38/103 37/36/104
f 31/31/105 32/32/106 39/39/107 38/38/108
f 32/32/109 33/33/110 40/40/111 39/39/112
f 33/33/113 34/34/114 41/41/115 40/40/116
f 34/34/117 35/35/118 42/42/119 41/41/120
f 36/37/121 37/36/122 44/43/123 43/44/124
f 37/36/125 38/38/126 45/45/127 44/43/128
f 38/38/129 39/39/130 46/46/131 45/45/132
f 39/39/133 40/40/134 47/47/135 46/46/136
f 40/40/137 41/41/138 48/48/139 47/47/140
f 41/41/141 42/42/142 49/49/143 48/48/144
f 43/44/145 44/43/146 51/50/147 50/51/148
f 44/43/149 45/45/150 52/52/151 51/50/152
f 45/45/153 46/46/154 53/53/155 52/52/156
f 46/46/157 47/47/158 54/54/159 53/53/160
f 47/47/161 48/48/162 55/55/163 54/54/164
f 48/48/165 49/49/166 56/56/167 55/55/168
f 50/51/169 51/50/170 58/57/171 57/58/172
f 51/50/173 52/52/174 59/59/175 58/57/176
f 52/52/177 53/53/178 60/60/179 59/59/180
f 53/53/181 54/54/182 61/61/183 60/60/184
f 54/54/185 55/55/186 62/62/187 61/61/188
f 55/55/189 56/56/190 63/63/191 62/62/192
f 57/58/193 58/57/194 65/64/195 64/65/196
f 58/57/197 59/59/198 66/66/199 65/64/200
f 59/59/201 60/60/202 67/67/203 66/66/204
f 60/60/205 61/61/206 68/68/207 67/67/208
f 61/61/209 62/62/210 69/69/211 68/68/212
f 62/62/213 63/63/214 70/70/215 69/69/216
f 64/65/217 65/64/218 72/71/219 71/72/220
f 65/64/221 66/66/222 73/73/223 72/71/224
f 66/66/225 67/67/226 74/74/227 73/73/228
f 67/67/229 68/68/230 75/75/231 74/74/232
f 68/68/233 69/69/234 76/76/235 75/75/236
f 69/69/237 70/70/238 77/77/239 76/76/240
f 71/72/241 72/71/242 79/78/243 78/79/244
f 72/71/245 73/73/246 80/80/247 79/78/248
f 73/73/249 74/74/250 81/81/251 80/80/252
f 74/74/253 75/75/254 82/82/255 81/81/256
f 75/75/257 76/76/258 83/83/259 82/82/260
f 76/76/261 77/77/262 84/84/263 83/83/264
f 78/79/265 79/78/266 86/85/267 85/86/268
f 79/78/269 80/80/270 87/87/271 86/85/272
f 80/80/273 81/81/274 88/88/275 87/87/276
f 81/81/277 82/82/278 89/89/279 88/88/280
f 82/82/281 83/83/282 90/90/283 89/89/284
f 83/83/285 84/84/286 91/91/287 90/90/288
f 85/86/289 86/85/290 93/92/291 92/93/292
f 86/85/293 87/87/294 94/94/295 93/92/296
f 87/87/297 88/88/298 95/95/299 94/94/300
f 88/88/301 89/89/302 96/96/303 95/95/304
f 89/89/305 90/90/306 97/97/307 96/96/308
f 90/90/309 91/91/310 98/98/311 97/97/312
f 92/93/313 93/92/314 2/99/315 1/100/316
f 93/92/317 94/94/318 3/101/319 2/99/320
f 94/94/321 95/95/322 4/102/323 3/101/324
f 95/95/325 96/96/326 5/103/327 4/102/328
f 96/96/329 97/97/330 6/104/331 5/103/332
f 97/97/333 98/98/334 7/105/335 6/104/336
f 70/106/337 63/107/338 56/108/339 49/109/340
f 77/110/341 70/106/342 49/109/343 42/111/344
f 84/112/345 77/110/346 42/111/347 35/113/348
f 91/114/349 84/112/350 35/113/351 28/115/352
f 98/116/353 91/114/354 28/115/355 21/117/356
f 7/13/357 98/116/358 21/117/359 14/14/360
f 57/118/361 64/119/362 43/120/363 50/121/364
f 64/119/365 71/122/366 36/123/367 43/120/368
f 71/122/369 78/124/370 29/125/371 36/123/372
f 78/124/373 85/126/374 22/127/375 29/125/376
f 85/126/377 92/128/378 15/129/379 22/127/380
f 92/128/381 1/1/382 8/4/383 15/129/384
